<mxfile host="app.diagrams.net" agent="Mozilla/5.0 (Windows NT 10.0; Win64; x64) AppleWebKit/537.36 (KHTML, like Gecko) Chrome/128.0.0.0 Safari/537.36 OPR/114.0.0.0" version="24.8.2">
  <diagram id="R2lEEEUBdFMjLlhIrx00" name="Page-1">
    <mxGraphModel dx="1898" dy="558" grid="1" gridSize="10" guides="1" tooltips="1" connect="1" arrows="1" fold="1" page="1" pageScale="1" pageWidth="850" pageHeight="1100" math="0" shadow="0" extFonts="Permanent Marker^https://fonts.googleapis.com/css?family=Permanent+Marker">
      <root>
        <mxCell id="0" />
        <mxCell id="1" parent="0" />
        <mxCell id="ododw7PFCaRmxLRYY1u6-10" style="edgeStyle=orthogonalEdgeStyle;rounded=0;orthogonalLoop=1;jettySize=auto;html=1;exitX=0.54;exitY=1.007;exitDx=0;exitDy=0;entryX=1;entryY=0.5;entryDx=0;entryDy=0;exitPerimeter=0;" parent="1" source="ododw7PFCaRmxLRYY1u6-1" target="ododw7PFCaRmxLRYY1u6-3" edge="1">
          <mxGeometry relative="1" as="geometry">
            <mxPoint x="199.9310344827586" y="130.0689655172414" as="targetPoint" />
            <Array as="points">
              <mxPoint x="203" y="333" />
            </Array>
          </mxGeometry>
        </mxCell>
        <mxCell id="ododw7PFCaRmxLRYY1u6-12" style="edgeStyle=orthogonalEdgeStyle;rounded=0;orthogonalLoop=1;jettySize=auto;html=1;entryX=1;entryY=0.5;entryDx=0;entryDy=0;" parent="1" source="ododw7PFCaRmxLRYY1u6-1" target="ododw7PFCaRmxLRYY1u6-11" edge="1">
          <mxGeometry relative="1" as="geometry" />
        </mxCell>
        <mxCell id="4snv_okNcYrmUUYU0laY-4" style="edgeStyle=orthogonalEdgeStyle;rounded=0;orthogonalLoop=1;jettySize=auto;html=1;entryX=1;entryY=0.5;entryDx=0;entryDy=0;" parent="1" source="ododw7PFCaRmxLRYY1u6-1" target="4snv_okNcYrmUUYU0laY-1" edge="1">
          <mxGeometry relative="1" as="geometry" />
        </mxCell>
        <mxCell id="4snv_okNcYrmUUYU0laY-5" style="edgeStyle=orthogonalEdgeStyle;rounded=0;orthogonalLoop=1;jettySize=auto;html=1;entryX=1;entryY=0.5;entryDx=0;entryDy=0;" parent="1" source="ododw7PFCaRmxLRYY1u6-1" target="4snv_okNcYrmUUYU0laY-2" edge="1">
          <mxGeometry relative="1" as="geometry" />
        </mxCell>
        <mxCell id="4snv_okNcYrmUUYU0laY-6" style="edgeStyle=orthogonalEdgeStyle;rounded=0;orthogonalLoop=1;jettySize=auto;html=1;entryX=1;entryY=0.5;entryDx=0;entryDy=0;" parent="1" source="ododw7PFCaRmxLRYY1u6-1" target="4snv_okNcYrmUUYU0laY-3" edge="1">
          <mxGeometry relative="1" as="geometry">
            <Array as="points">
              <mxPoint x="140" y="120" />
              <mxPoint x="140" y="150" />
            </Array>
          </mxGeometry>
        </mxCell>
        <mxCell id="hUXYa30MEbC2z9Zw8lrh-1" style="edgeStyle=orthogonalEdgeStyle;rounded=0;orthogonalLoop=1;jettySize=auto;html=1;entryX=1;entryY=0.5;entryDx=0;entryDy=0;" parent="1" source="ododw7PFCaRmxLRYY1u6-1" target="ododw7PFCaRmxLRYY1u6-14" edge="1">
          <mxGeometry relative="1" as="geometry" />
        </mxCell>
        <mxCell id="ododw7PFCaRmxLRYY1u6-1" value="Media" style="rounded=0;whiteSpace=wrap;html=1;" parent="1" vertex="1">
          <mxGeometry x="165" y="110" width="70" height="20" as="geometry" />
        </mxCell>
        <mxCell id="hUXYa30MEbC2z9Zw8lrh-3" style="edgeStyle=orthogonalEdgeStyle;rounded=0;orthogonalLoop=1;jettySize=auto;html=1;entryX=1;entryY=0.5;entryDx=0;entryDy=0;" parent="1" source="ododw7PFCaRmxLRYY1u6-2" target="hUXYa30MEbC2z9Zw8lrh-2" edge="1">
          <mxGeometry relative="1" as="geometry" />
        </mxCell>
        <mxCell id="ododw7PFCaRmxLRYY1u6-2" value="Movies" style="rounded=0;whiteSpace=wrap;html=1;" parent="1" vertex="1">
          <mxGeometry x="-36.25" y="416.62" width="70" height="20" as="geometry" />
        </mxCell>
        <mxCell id="ododw7PFCaRmxLRYY1u6-5" style="edgeStyle=orthogonalEdgeStyle;rounded=0;orthogonalLoop=1;jettySize=auto;html=1;exitX=0.5;exitY=1;exitDx=0;exitDy=0;" parent="1" source="ododw7PFCaRmxLRYY1u6-3" target="ododw7PFCaRmxLRYY1u6-2" edge="1">
          <mxGeometry relative="1" as="geometry">
            <Array as="points">
              <mxPoint x="53.75" y="396.62" />
              <mxPoint x="-6.25" y="396.62" />
            </Array>
          </mxGeometry>
        </mxCell>
        <mxCell id="ododw7PFCaRmxLRYY1u6-8" style="edgeStyle=orthogonalEdgeStyle;rounded=0;orthogonalLoop=1;jettySize=auto;html=1;entryX=0.5;entryY=0;entryDx=0;entryDy=0;" parent="1" source="ododw7PFCaRmxLRYY1u6-3" target="ododw7PFCaRmxLRYY1u6-6" edge="1">
          <mxGeometry relative="1" as="geometry">
            <Array as="points">
              <mxPoint x="53.75" y="396.62" />
              <mxPoint x="108.75" y="396.62" />
            </Array>
          </mxGeometry>
        </mxCell>
        <mxCell id="ododw7PFCaRmxLRYY1u6-3" value="is-a" style="rhombus;whiteSpace=wrap;html=1;" parent="1" vertex="1">
          <mxGeometry x="18.75" y="306.62" width="70" height="52.5" as="geometry" />
        </mxCell>
        <mxCell id="ododw7PFCaRmxLRYY1u6-25" style="edgeStyle=orthogonalEdgeStyle;rounded=0;orthogonalLoop=1;jettySize=auto;html=1;entryX=0;entryY=0.5;entryDx=0;entryDy=0;" parent="1" source="ododw7PFCaRmxLRYY1u6-6" target="ododw7PFCaRmxLRYY1u6-21" edge="1">
          <mxGeometry relative="1" as="geometry" />
        </mxCell>
        <mxCell id="ododw7PFCaRmxLRYY1u6-6" value="Series" style="rounded=0;whiteSpace=wrap;html=1;" parent="1" vertex="1">
          <mxGeometry x="73.75" y="416.62" width="70" height="20" as="geometry" />
        </mxCell>
        <mxCell id="ododw7PFCaRmxLRYY1u6-11" value="Genre" style="ellipse;whiteSpace=wrap;html=1;" parent="1" vertex="1">
          <mxGeometry x="62.5" y="10" width="50" height="30" as="geometry" />
        </mxCell>
        <mxCell id="ododw7PFCaRmxLRYY1u6-14" value="Media_ID" style="ellipse;whiteSpace=wrap;html=1;" parent="1" vertex="1">
          <mxGeometry x="45" y="180" width="67.5" height="20" as="geometry" />
        </mxCell>
        <mxCell id="ododw7PFCaRmxLRYY1u6-21" value="Seasons" style="ellipse;whiteSpace=wrap;html=1;" parent="1" vertex="1">
          <mxGeometry x="173.75" y="411.62" width="50" height="30" as="geometry" />
        </mxCell>
        <mxCell id="xL0sxVGsgrSIJqUNKnKU-6" style="edgeStyle=orthogonalEdgeStyle;rounded=0;orthogonalLoop=1;jettySize=auto;html=1;entryX=0;entryY=0.5;entryDx=0;entryDy=0;" parent="1" source="ododw7PFCaRmxLRYY1u6-23" target="xL0sxVGsgrSIJqUNKnKU-3" edge="1">
          <mxGeometry relative="1" as="geometry">
            <Array as="points">
              <mxPoint x="286.25" y="536.62" />
              <mxPoint x="286.25" y="576.62" />
            </Array>
          </mxGeometry>
        </mxCell>
        <mxCell id="xL0sxVGsgrSIJqUNKnKU-7" style="edgeStyle=orthogonalEdgeStyle;rounded=0;orthogonalLoop=1;jettySize=auto;html=1;entryX=0;entryY=0.5;entryDx=0;entryDy=0;" parent="1" source="ododw7PFCaRmxLRYY1u6-23" target="xL0sxVGsgrSIJqUNKnKU-4" edge="1">
          <mxGeometry relative="1" as="geometry">
            <Array as="points">
              <mxPoint x="286.25" y="536.62" />
            </Array>
          </mxGeometry>
        </mxCell>
        <mxCell id="ododw7PFCaRmxLRYY1u6-23" value="Episodes" style="ellipse;whiteSpace=wrap;html=1;" parent="1" vertex="1">
          <mxGeometry x="228.75" y="521.62" width="50" height="30" as="geometry" />
        </mxCell>
        <mxCell id="ododw7PFCaRmxLRYY1u6-37" style="edgeStyle=orthogonalEdgeStyle;rounded=0;orthogonalLoop=1;jettySize=auto;html=1;entryX=0.5;entryY=0;entryDx=0;entryDy=0;" parent="1" source="ododw7PFCaRmxLRYY1u6-27" target="ododw7PFCaRmxLRYY1u6-34" edge="1">
          <mxGeometry relative="1" as="geometry">
            <Array as="points">
              <mxPoint x="-56.25" y="606.62" />
              <mxPoint x="-161.25" y="606.62" />
            </Array>
          </mxGeometry>
        </mxCell>
        <mxCell id="ododw7PFCaRmxLRYY1u6-27" value="Configuration" style="rounded=0;whiteSpace=wrap;html=1;" parent="1" vertex="1">
          <mxGeometry x="-91.25" y="576.62" width="70" height="20" as="geometry" />
        </mxCell>
        <mxCell id="ododw7PFCaRmxLRYY1u6-33" style="edgeStyle=orthogonalEdgeStyle;rounded=0;orthogonalLoop=1;jettySize=auto;html=1;entryX=0.5;entryY=0;entryDx=0;entryDy=0;" parent="1" source="ododw7PFCaRmxLRYY1u6-28" target="ododw7PFCaRmxLRYY1u6-27" edge="1">
          <mxGeometry relative="1" as="geometry" />
        </mxCell>
        <mxCell id="ododw7PFCaRmxLRYY1u6-28" value="contains" style="rhombus;whiteSpace=wrap;html=1;" parent="1" vertex="1">
          <mxGeometry x="18.75" y="486.62" width="70" height="52.5" as="geometry" />
        </mxCell>
        <mxCell id="ododw7PFCaRmxLRYY1u6-31" value="" style="endArrow=none;html=1;rounded=0;entryX=0.427;entryY=1.006;entryDx=0;entryDy=0;entryPerimeter=0;exitX=0.5;exitY=0;exitDx=0;exitDy=0;" parent="1" source="ododw7PFCaRmxLRYY1u6-28" target="ododw7PFCaRmxLRYY1u6-2" edge="1">
          <mxGeometry width="50" height="50" relative="1" as="geometry">
            <mxPoint x="73.75" y="536.62" as="sourcePoint" />
            <mxPoint x="103.75" y="486.62" as="targetPoint" />
            <Array as="points">
              <mxPoint x="-6.25" y="486.62" />
            </Array>
          </mxGeometry>
        </mxCell>
        <mxCell id="ododw7PFCaRmxLRYY1u6-32" value="" style="endArrow=none;html=1;rounded=0;" parent="1" edge="1">
          <mxGeometry width="50" height="50" relative="1" as="geometry">
            <mxPoint x="53.75" y="486.62" as="sourcePoint" />
            <mxPoint x="103.75" y="436.62" as="targetPoint" />
            <Array as="points">
              <mxPoint x="103.75" y="486.62" />
            </Array>
          </mxGeometry>
        </mxCell>
        <mxCell id="ododw7PFCaRmxLRYY1u6-34" value="Language" style="ellipse;whiteSpace=wrap;html=1;" parent="1" vertex="1">
          <mxGeometry x="-196.25" y="626.62" width="70" height="40" as="geometry" />
        </mxCell>
        <mxCell id="ododw7PFCaRmxLRYY1u6-35" value="Subtitles&lt;span style=&quot;color: rgba(0, 0, 0, 0); font-family: monospace; font-size: 0px; text-align: start; text-wrap: nowrap;&quot;&gt;%3CmxGraphModel%3E%3Croot%3E%3CmxCell%20id%3D%220%22%2F%3E%3CmxCell%20id%3D%221%22%20parent%3D%220%22%2F%3E%3CmxCell%20id%3D%222%22%20value%3D%22Language%22%20style%3D%22ellipse%3BwhiteSpace%3Dwrap%3Bhtml%3D1%3B%22%20vertex%3D%221%22%20parent%3D%221%22%3E%3CmxGeometry%20x%3D%2260%22%20y%3D%22480%22%20width%3D%2270%22%20height%3D%2240%22%20as%3D%22geometry%22%2F%3E%3C%2FmxCell%3E%3C%2Froot%3E%3C%2FmxGraphModel%3E&lt;/span&gt;" style="ellipse;whiteSpace=wrap;html=1;" parent="1" vertex="1">
          <mxGeometry x="-86.25" y="626.62" width="70" height="40" as="geometry" />
        </mxCell>
        <mxCell id="ododw7PFCaRmxLRYY1u6-36" value="Quality" style="ellipse;whiteSpace=wrap;html=1;" parent="1" vertex="1">
          <mxGeometry x="3.75" y="626.62" width="70" height="40" as="geometry" />
        </mxCell>
        <mxCell id="ododw7PFCaRmxLRYY1u6-38" style="edgeStyle=orthogonalEdgeStyle;rounded=0;orthogonalLoop=1;jettySize=auto;html=1;entryX=0.431;entryY=0.004;entryDx=0;entryDy=0;entryPerimeter=0;" parent="1" source="ododw7PFCaRmxLRYY1u6-27" target="ododw7PFCaRmxLRYY1u6-35" edge="1">
          <mxGeometry relative="1" as="geometry">
            <Array as="points" />
          </mxGeometry>
        </mxCell>
        <mxCell id="ododw7PFCaRmxLRYY1u6-39" style="edgeStyle=orthogonalEdgeStyle;rounded=0;orthogonalLoop=1;jettySize=auto;html=1;entryX=0.501;entryY=0.077;entryDx=0;entryDy=0;entryPerimeter=0;" parent="1" source="ododw7PFCaRmxLRYY1u6-27" target="ododw7PFCaRmxLRYY1u6-36" edge="1">
          <mxGeometry relative="1" as="geometry">
            <Array as="points">
              <mxPoint x="-56.25" y="606.62" />
              <mxPoint x="38.75" y="606.62" />
            </Array>
          </mxGeometry>
        </mxCell>
        <mxCell id="ododw7PFCaRmxLRYY1u6-79" style="edgeStyle=orthogonalEdgeStyle;rounded=0;orthogonalLoop=1;jettySize=auto;html=1;entryX=0.5;entryY=1;entryDx=0;entryDy=0;" parent="1" source="ododw7PFCaRmxLRYY1u6-40" target="ododw7PFCaRmxLRYY1u6-77" edge="1">
          <mxGeometry relative="1" as="geometry" />
        </mxCell>
        <mxCell id="ododw7PFCaRmxLRYY1u6-40" value="Watchlist" style="rounded=0;whiteSpace=wrap;html=1;" parent="1" vertex="1">
          <mxGeometry x="450" y="110" width="70" height="20" as="geometry" />
        </mxCell>
        <mxCell id="ododw7PFCaRmxLRYY1u6-43" style="edgeStyle=orthogonalEdgeStyle;rounded=0;orthogonalLoop=1;jettySize=auto;html=1;entryX=1;entryY=0.5;entryDx=0;entryDy=0;" parent="1" source="ododw7PFCaRmxLRYY1u6-41" target="ododw7PFCaRmxLRYY1u6-1" edge="1">
          <mxGeometry relative="1" as="geometry" />
        </mxCell>
        <mxCell id="ododw7PFCaRmxLRYY1u6-41" value="contains" style="rhombus;whiteSpace=wrap;html=1;" parent="1" vertex="1">
          <mxGeometry x="310" y="93.75" width="70" height="52.5" as="geometry" />
        </mxCell>
        <mxCell id="ododw7PFCaRmxLRYY1u6-42" value="" style="endArrow=none;html=1;rounded=0;entryX=0;entryY=0.5;entryDx=0;entryDy=0;exitX=1;exitY=0.5;exitDx=0;exitDy=0;" parent="1" source="ododw7PFCaRmxLRYY1u6-41" target="ododw7PFCaRmxLRYY1u6-40" edge="1">
          <mxGeometry width="50" height="50" relative="1" as="geometry">
            <mxPoint x="390" y="210" as="sourcePoint" />
            <mxPoint x="440" y="160" as="targetPoint" />
          </mxGeometry>
        </mxCell>
        <mxCell id="ododw7PFCaRmxLRYY1u6-69" style="edgeStyle=orthogonalEdgeStyle;rounded=0;orthogonalLoop=1;jettySize=auto;html=1;entryX=1;entryY=0.5;entryDx=0;entryDy=0;" parent="1" source="ododw7PFCaRmxLRYY1u6-45" target="ododw7PFCaRmxLRYY1u6-40" edge="1">
          <mxGeometry relative="1" as="geometry" />
        </mxCell>
        <mxCell id="ododw7PFCaRmxLRYY1u6-45" value="watches" style="rhombus;whiteSpace=wrap;html=1;" parent="1" vertex="1">
          <mxGeometry x="600" y="93.75" width="70" height="52.5" as="geometry" />
        </mxCell>
        <mxCell id="ododw7PFCaRmxLRYY1u6-54" style="edgeStyle=orthogonalEdgeStyle;rounded=0;orthogonalLoop=1;jettySize=auto;html=1;entryX=1;entryY=0.5;entryDx=0;entryDy=0;" parent="1" target="ododw7PFCaRmxLRYY1u6-50" edge="1">
          <mxGeometry relative="1" as="geometry">
            <mxPoint x="545" y="827.5185185185185" as="sourcePoint" />
          </mxGeometry>
        </mxCell>
        <mxCell id="ododw7PFCaRmxLRYY1u6-56" style="edgeStyle=orthogonalEdgeStyle;rounded=0;orthogonalLoop=1;jettySize=auto;html=1;entryX=1;entryY=0.5;entryDx=0;entryDy=0;" parent="1" target="ododw7PFCaRmxLRYY1u6-52" edge="1">
          <mxGeometry relative="1" as="geometry">
            <mxPoint x="545" y="827.5185185185185" as="sourcePoint" />
          </mxGeometry>
        </mxCell>
        <mxCell id="ododw7PFCaRmxLRYY1u6-48" value="Payement" style="rounded=0;whiteSpace=wrap;html=1;" parent="1" vertex="1">
          <mxGeometry x="550" y="817.5" width="70" height="20" as="geometry" />
        </mxCell>
        <mxCell id="ododw7PFCaRmxLRYY1u6-50" value="Payement_ID" style="ellipse;whiteSpace=wrap;html=1;" parent="1" vertex="1">
          <mxGeometry x="425" y="790" width="80" height="20" as="geometry" />
        </mxCell>
        <mxCell id="ododw7PFCaRmxLRYY1u6-51" value="IBAN" style="ellipse;whiteSpace=wrap;html=1;" parent="1" vertex="1">
          <mxGeometry x="425" y="817.5" width="80" height="20" as="geometry" />
        </mxCell>
        <mxCell id="ododw7PFCaRmxLRYY1u6-52" value="Preice" style="ellipse;whiteSpace=wrap;html=1;" parent="1" vertex="1">
          <mxGeometry x="425" y="847.5" width="80" height="20" as="geometry" />
        </mxCell>
        <mxCell id="ododw7PFCaRmxLRYY1u6-55" style="edgeStyle=orthogonalEdgeStyle;rounded=0;orthogonalLoop=1;jettySize=auto;html=1;entryX=1;entryY=0.5;entryDx=0;entryDy=0;exitX=0;exitY=0.5;exitDx=0;exitDy=0;" parent="1" source="ododw7PFCaRmxLRYY1u6-48" target="ododw7PFCaRmxLRYY1u6-51" edge="1">
          <mxGeometry relative="1" as="geometry">
            <Array as="points" />
            <mxPoint x="545" y="828" as="sourcePoint" />
          </mxGeometry>
        </mxCell>
        <mxCell id="ododw7PFCaRmxLRYY1u6-74" style="edgeStyle=orthogonalEdgeStyle;rounded=0;orthogonalLoop=1;jettySize=auto;html=1;entryX=1;entryY=0.5;entryDx=0;entryDy=0;" parent="1" source="ododw7PFCaRmxLRYY1u6-58" target="ododw7PFCaRmxLRYY1u6-71" edge="1">
          <mxGeometry relative="1" as="geometry">
            <Array as="points">
              <mxPoint x="720" y="288" />
              <mxPoint x="720" y="260" />
            </Array>
          </mxGeometry>
        </mxCell>
        <mxCell id="ododw7PFCaRmxLRYY1u6-75" style="edgeStyle=orthogonalEdgeStyle;rounded=0;orthogonalLoop=1;jettySize=auto;html=1;entryX=1;entryY=0.5;entryDx=0;entryDy=0;" parent="1" source="ododw7PFCaRmxLRYY1u6-58" target="ododw7PFCaRmxLRYY1u6-72" edge="1">
          <mxGeometry relative="1" as="geometry" />
        </mxCell>
        <mxCell id="4snv_okNcYrmUUYU0laY-9" style="edgeStyle=orthogonalEdgeStyle;rounded=0;orthogonalLoop=1;jettySize=auto;html=1;entryX=1;entryY=0.5;entryDx=0;entryDy=0;" parent="1" source="ododw7PFCaRmxLRYY1u6-58" target="4snv_okNcYrmUUYU0laY-8" edge="1">
          <mxGeometry relative="1" as="geometry">
            <Array as="points">
              <mxPoint x="720" y="288" />
              <mxPoint x="720" y="322" />
            </Array>
          </mxGeometry>
        </mxCell>
        <mxCell id="ododw7PFCaRmxLRYY1u6-58" value="User" style="rounded=0;whiteSpace=wrap;html=1;" parent="1" vertex="1">
          <mxGeometry x="730" y="277.5" width="70" height="20" as="geometry" />
        </mxCell>
        <mxCell id="ododw7PFCaRmxLRYY1u6-66" style="edgeStyle=orthogonalEdgeStyle;rounded=0;orthogonalLoop=1;jettySize=auto;html=1;entryX=0.5;entryY=0;entryDx=0;entryDy=0;" parent="1" source="ododw7PFCaRmxLRYY1u6-60" target="ododw7PFCaRmxLRYY1u6-62" edge="1">
          <mxGeometry relative="1" as="geometry">
            <Array as="points">
              <mxPoint x="765" y="695" />
              <mxPoint x="705" y="695" />
            </Array>
          </mxGeometry>
        </mxCell>
        <mxCell id="ododw7PFCaRmxLRYY1u6-67" style="edgeStyle=orthogonalEdgeStyle;rounded=0;orthogonalLoop=1;jettySize=auto;html=1;entryX=0.5;entryY=0;entryDx=0;entryDy=0;" parent="1" source="ododw7PFCaRmxLRYY1u6-60" target="ododw7PFCaRmxLRYY1u6-63" edge="1">
          <mxGeometry relative="1" as="geometry">
            <Array as="points">
              <mxPoint x="765" y="695" />
              <mxPoint x="805" y="695" />
            </Array>
          </mxGeometry>
        </mxCell>
        <mxCell id="ododw7PFCaRmxLRYY1u6-60" value="is-a" style="rhombus;whiteSpace=wrap;html=1;" parent="1" vertex="1">
          <mxGeometry x="730" y="450" width="70" height="52.5" as="geometry" />
        </mxCell>
        <mxCell id="ododw7PFCaRmxLRYY1u6-62" value="MainUser" style="rounded=0;whiteSpace=wrap;html=1;" parent="1" vertex="1">
          <mxGeometry x="670" y="715" width="70" height="20" as="geometry" />
        </mxCell>
        <mxCell id="ododw7PFCaRmxLRYY1u6-63" value="OtherUser" style="rounded=0;whiteSpace=wrap;html=1;" parent="1" vertex="1">
          <mxGeometry x="770" y="715" width="70" height="20" as="geometry" />
        </mxCell>
        <mxCell id="ododw7PFCaRmxLRYY1u6-65" value="" style="endArrow=none;html=1;rounded=0;entryX=0.5;entryY=1;entryDx=0;entryDy=0;exitX=0.5;exitY=0;exitDx=0;exitDy=0;" parent="1" source="ododw7PFCaRmxLRYY1u6-60" target="ododw7PFCaRmxLRYY1u6-58" edge="1">
          <mxGeometry width="50" height="50" relative="1" as="geometry">
            <mxPoint x="740" y="635" as="sourcePoint" />
            <mxPoint x="790" y="585" as="targetPoint" />
          </mxGeometry>
        </mxCell>
        <mxCell id="ododw7PFCaRmxLRYY1u6-68" value="" style="endArrow=none;html=1;rounded=0;entryX=0.5;entryY=0;entryDx=0;entryDy=0;exitX=1;exitY=0.5;exitDx=0;exitDy=0;edgeStyle=orthogonalEdgeStyle;" parent="1" source="ododw7PFCaRmxLRYY1u6-45" target="ododw7PFCaRmxLRYY1u6-58" edge="1">
          <mxGeometry width="50" height="50" relative="1" as="geometry">
            <mxPoint x="680" y="170" as="sourcePoint" />
            <mxPoint x="730" y="120" as="targetPoint" />
          </mxGeometry>
        </mxCell>
        <mxCell id="ododw7PFCaRmxLRYY1u6-71" value="User_ID" style="ellipse;whiteSpace=wrap;html=1;" parent="1" vertex="1">
          <mxGeometry x="620" y="250" width="80" height="20" as="geometry" />
        </mxCell>
        <mxCell id="ododw7PFCaRmxLRYY1u6-72" value="Email" style="ellipse;whiteSpace=wrap;html=1;" parent="1" vertex="1">
          <mxGeometry x="620" y="277.5" width="80" height="20" as="geometry" />
        </mxCell>
        <mxCell id="ododw7PFCaRmxLRYY1u6-73" value="Subscription&lt;div&gt;Type&lt;/div&gt;" style="ellipse;whiteSpace=wrap;html=1;" parent="1" vertex="1">
          <mxGeometry x="570" y="860" width="80" height="40" as="geometry" />
        </mxCell>
        <mxCell id="ododw7PFCaRmxLRYY1u6-77" value="Watch_ID" style="ellipse;whiteSpace=wrap;html=1;" parent="1" vertex="1">
          <mxGeometry x="450" y="63.75" width="70" height="30" as="geometry" />
        </mxCell>
        <mxCell id="ododw7PFCaRmxLRYY1u6-84" style="edgeStyle=orthogonalEdgeStyle;rounded=0;orthogonalLoop=1;jettySize=auto;html=1;entryX=0.776;entryY=1.042;entryDx=0;entryDy=0;entryPerimeter=0;" parent="1" source="ododw7PFCaRmxLRYY1u6-82" target="ododw7PFCaRmxLRYY1u6-1" edge="1">
          <mxGeometry relative="1" as="geometry" />
        </mxCell>
        <mxCell id="ododw7PFCaRmxLRYY1u6-88" style="edgeStyle=orthogonalEdgeStyle;rounded=0;orthogonalLoop=1;jettySize=auto;html=1;entryX=0.5;entryY=0;entryDx=0;entryDy=0;" parent="1" source="ododw7PFCaRmxLRYY1u6-82" target="ododw7PFCaRmxLRYY1u6-86" edge="1">
          <mxGeometry relative="1" as="geometry">
            <Array as="points">
              <mxPoint x="485" y="230" />
              <mxPoint x="398" y="230" />
            </Array>
          </mxGeometry>
        </mxCell>
        <mxCell id="ododw7PFCaRmxLRYY1u6-89" style="edgeStyle=orthogonalEdgeStyle;rounded=0;orthogonalLoop=1;jettySize=auto;html=1;entryX=0.5;entryY=0;entryDx=0;entryDy=0;" parent="1" source="ododw7PFCaRmxLRYY1u6-82" target="ododw7PFCaRmxLRYY1u6-85" edge="1">
          <mxGeometry relative="1" as="geometry" />
        </mxCell>
        <mxCell id="ododw7PFCaRmxLRYY1u6-82" value="Reviews" style="rounded=0;whiteSpace=wrap;html=1;" parent="1" vertex="1">
          <mxGeometry x="450" y="190" width="70" height="20" as="geometry" />
        </mxCell>
        <mxCell id="ododw7PFCaRmxLRYY1u6-85" value="Comment" style="ellipse;whiteSpace=wrap;html=1;" parent="1" vertex="1">
          <mxGeometry x="450" y="250" width="70" height="30" as="geometry" />
        </mxCell>
        <mxCell id="ododw7PFCaRmxLRYY1u6-86" value="Rewiew_ID" style="ellipse;whiteSpace=wrap;html=1;" parent="1" vertex="1">
          <mxGeometry x="362.5" y="250" width="70" height="30" as="geometry" />
        </mxCell>
        <mxCell id="ododw7PFCaRmxLRYY1u6-87" value="Rating" style="ellipse;whiteSpace=wrap;html=1;" parent="1" vertex="1">
          <mxGeometry x="530" y="250" width="70" height="30" as="geometry" />
        </mxCell>
        <mxCell id="ododw7PFCaRmxLRYY1u6-90" style="edgeStyle=orthogonalEdgeStyle;rounded=0;orthogonalLoop=1;jettySize=auto;html=1;entryX=0.5;entryY=0;entryDx=0;entryDy=0;" parent="1" source="ododw7PFCaRmxLRYY1u6-82" target="ododw7PFCaRmxLRYY1u6-87" edge="1">
          <mxGeometry relative="1" as="geometry">
            <Array as="points">
              <mxPoint x="485" y="230" />
              <mxPoint x="565" y="230" />
            </Array>
          </mxGeometry>
        </mxCell>
        <mxCell id="4snv_okNcYrmUUYU0laY-1" value="Titel" style="ellipse;whiteSpace=wrap;html=1;" parent="1" vertex="1">
          <mxGeometry x="62.5" y="50" width="50" height="30" as="geometry" />
        </mxCell>
        <mxCell id="4snv_okNcYrmUUYU0laY-2" value="Release_year" style="ellipse;whiteSpace=wrap;html=1;" parent="1" vertex="1">
          <mxGeometry x="20" y="93.75" width="92.5" height="30" as="geometry" />
        </mxCell>
        <mxCell id="4snv_okNcYrmUUYU0laY-3" value="Rating" style="ellipse;whiteSpace=wrap;html=1;" parent="1" vertex="1">
          <mxGeometry x="67.5" y="140" width="40" height="20" as="geometry" />
        </mxCell>
        <mxCell id="4snv_okNcYrmUUYU0laY-8" value="Name" style="ellipse;whiteSpace=wrap;html=1;" parent="1" vertex="1">
          <mxGeometry x="620" y="312.5" width="80" height="20" as="geometry" />
        </mxCell>
        <mxCell id="xL0sxVGsgrSIJqUNKnKU-1" value="Ep_ID" style="ellipse;whiteSpace=wrap;html=1;" parent="1" vertex="1">
          <mxGeometry x="296.25" y="521.62" width="50" height="30" as="geometry" />
        </mxCell>
        <mxCell id="xL0sxVGsgrSIJqUNKnKU-3" value="titel" style="ellipse;whiteSpace=wrap;html=1;" parent="1" vertex="1">
          <mxGeometry x="296.25" y="561.62" width="50" height="30" as="geometry" />
        </mxCell>
        <mxCell id="xL0sxVGsgrSIJqUNKnKU-4" value="Ep_numeber" style="ellipse;whiteSpace=wrap;html=1;" parent="1" vertex="1">
          <mxGeometry x="291.25" y="601.62" width="80" height="30" as="geometry" />
        </mxCell>
        <mxCell id="xL0sxVGsgrSIJqUNKnKU-5" style="edgeStyle=orthogonalEdgeStyle;rounded=0;orthogonalLoop=1;jettySize=auto;html=1;entryX=0.04;entryY=0.515;entryDx=0;entryDy=0;entryPerimeter=0;" parent="1" source="ododw7PFCaRmxLRYY1u6-23" target="xL0sxVGsgrSIJqUNKnKU-1" edge="1">
          <mxGeometry relative="1" as="geometry" />
        </mxCell>
        <mxCell id="xL0sxVGsgrSIJqUNKnKU-10" style="edgeStyle=orthogonalEdgeStyle;rounded=0;orthogonalLoop=1;jettySize=auto;html=1;entryX=0;entryY=0.5;entryDx=0;entryDy=0;" parent="1" source="xL0sxVGsgrSIJqUNKnKU-8" target="ododw7PFCaRmxLRYY1u6-23" edge="1">
          <mxGeometry relative="1" as="geometry">
            <Array as="points">
              <mxPoint x="179.25" y="536.62" />
            </Array>
          </mxGeometry>
        </mxCell>
        <mxCell id="xL0sxVGsgrSIJqUNKnKU-8" value="contains" style="rhombus;whiteSpace=wrap;html=1;" parent="1" vertex="1">
          <mxGeometry x="143.75" y="469.12" width="70" height="52.5" as="geometry" />
        </mxCell>
        <mxCell id="xL0sxVGsgrSIJqUNKnKU-11" value="" style="endArrow=none;html=1;rounded=0;entryX=1;entryY=0.5;entryDx=0;entryDy=0;exitX=0.5;exitY=0;exitDx=0;exitDy=0;" parent="1" source="xL0sxVGsgrSIJqUNKnKU-8" target="ododw7PFCaRmxLRYY1u6-6" edge="1">
          <mxGeometry width="50" height="50" relative="1" as="geometry">
            <mxPoint x="111.25" y="496.62" as="sourcePoint" />
            <mxPoint x="161.25" y="446.62" as="targetPoint" />
          </mxGeometry>
        </mxCell>
        <mxCell id="xL0sxVGsgrSIJqUNKnKU-23" style="edgeStyle=orthogonalEdgeStyle;rounded=0;orthogonalLoop=1;jettySize=auto;html=1;entryX=0;entryY=0.5;entryDx=0;entryDy=0;" parent="1" source="xL0sxVGsgrSIJqUNKnKU-14" target="xL0sxVGsgrSIJqUNKnKU-22" edge="1">
          <mxGeometry relative="1" as="geometry" />
        </mxCell>
        <mxCell id="hUXYa30MEbC2z9Zw8lrh-6" style="edgeStyle=orthogonalEdgeStyle;rounded=0;orthogonalLoop=1;jettySize=auto;html=1;entryX=0.5;entryY=0;entryDx=0;entryDy=0;exitX=0;exitY=1;exitDx=0;exitDy=0;" parent="1" target="hUXYa30MEbC2z9Zw8lrh-4" edge="1" source="xL0sxVGsgrSIJqUNKnKU-14">
          <mxGeometry relative="1" as="geometry">
            <mxPoint x="121.25" y="671.62" as="sourcePoint" />
            <Array as="points">
              <mxPoint x="71.25" y="671.62" />
              <mxPoint x="71.25" y="686.62" />
              <mxPoint x="39.25" y="686.62" />
            </Array>
          </mxGeometry>
        </mxCell>
        <mxCell id="xL0sxVGsgrSIJqUNKnKU-14" value="Cast" style="rounded=0;whiteSpace=wrap;html=1;" parent="1" vertex="1">
          <mxGeometry x="86.25" y="651.62" width="70" height="25" as="geometry" />
        </mxCell>
        <mxCell id="xL0sxVGsgrSIJqUNKnKU-21" style="edgeStyle=orthogonalEdgeStyle;rounded=0;orthogonalLoop=1;jettySize=auto;html=1;entryX=0.5;entryY=0;entryDx=0;entryDy=0;exitX=1;exitY=0.5;exitDx=0;exitDy=0;" parent="1" source="ododw7PFCaRmxLRYY1u6-28" target="xL0sxVGsgrSIJqUNKnKU-14" edge="1">
          <mxGeometry relative="1" as="geometry">
            <mxPoint x="29.25" y="522.62" as="sourcePoint" />
            <mxPoint x="-45.75" y="586.62" as="targetPoint" />
          </mxGeometry>
        </mxCell>
        <mxCell id="xL0sxVGsgrSIJqUNKnKU-22" value="Description" style="ellipse;whiteSpace=wrap;html=1;" parent="1" vertex="1">
          <mxGeometry x="181.25" y="641.62" width="70" height="40" as="geometry" />
        </mxCell>
        <mxCell id="hUXYa30MEbC2z9Zw8lrh-2" value="Duration" style="ellipse;whiteSpace=wrap;html=1;" parent="1" vertex="1">
          <mxGeometry x="-118.75" y="411.62" width="50" height="30" as="geometry" />
        </mxCell>
        <mxCell id="hUXYa30MEbC2z9Zw8lrh-4" value="Cast_ID" style="ellipse;whiteSpace=wrap;html=1;" parent="1" vertex="1">
          <mxGeometry x="3.75" y="711.62" width="70" height="40" as="geometry" />
        </mxCell>
        <mxCell id="7Or1WgBIj-IJ1wdiWkvj-1" value="is-a" style="rhombus;whiteSpace=wrap;html=1;" vertex="1" parent="1">
          <mxGeometry x="131.25" y="694.12" width="70" height="52.5" as="geometry" />
        </mxCell>
        <mxCell id="7Or1WgBIj-IJ1wdiWkvj-3" value="" style="endArrow=none;html=1;rounded=0;entryX=0.5;entryY=1;entryDx=0;entryDy=0;exitX=0.5;exitY=0;exitDx=0;exitDy=0;" edge="1" parent="1" source="7Or1WgBIj-IJ1wdiWkvj-1" target="xL0sxVGsgrSIJqUNKnKU-14">
          <mxGeometry width="50" height="50" relative="1" as="geometry">
            <mxPoint x="201.25" y="746.62" as="sourcePoint" />
            <mxPoint x="251.25" y="696.62" as="targetPoint" />
          </mxGeometry>
        </mxCell>
        <mxCell id="7Or1WgBIj-IJ1wdiWkvj-4" value="" style="endArrow=classic;html=1;rounded=0;exitX=0.5;exitY=1;exitDx=0;exitDy=0;edgeStyle=orthogonalEdgeStyle;" edge="1" parent="1" source="7Or1WgBIj-IJ1wdiWkvj-1" target="7Or1WgBIj-IJ1wdiWkvj-15">
          <mxGeometry width="50" height="50" relative="1" as="geometry">
            <mxPoint x="201.25" y="746.62" as="sourcePoint" />
            <mxPoint x="123.75" y="806.62" as="targetPoint" />
          </mxGeometry>
        </mxCell>
        <mxCell id="7Or1WgBIj-IJ1wdiWkvj-5" value="" style="endArrow=classic;html=1;rounded=0;exitX=0.5;exitY=1;exitDx=0;exitDy=0;edgeStyle=orthogonalEdgeStyle;" edge="1" parent="1" source="7Or1WgBIj-IJ1wdiWkvj-1" target="7Or1WgBIj-IJ1wdiWkvj-16">
          <mxGeometry width="50" height="50" relative="1" as="geometry">
            <mxPoint x="201.25" y="746.62" as="sourcePoint" />
            <mxPoint x="208.75" y="806.62" as="targetPoint" />
          </mxGeometry>
        </mxCell>
        <mxCell id="7Or1WgBIj-IJ1wdiWkvj-6" value="Actor_ID" style="ellipse;whiteSpace=wrap;html=1;" vertex="1" parent="1">
          <mxGeometry x="3.75" y="867.5" width="70" height="40" as="geometry" />
        </mxCell>
        <mxCell id="7Or1WgBIj-IJ1wdiWkvj-7" value="Director_ID" style="ellipse;whiteSpace=wrap;html=1;" vertex="1" parent="1">
          <mxGeometry x="176.25" y="867.5" width="70" height="40" as="geometry" />
        </mxCell>
        <mxCell id="7Or1WgBIj-IJ1wdiWkvj-8" value="Name" style="ellipse;whiteSpace=wrap;html=1;" vertex="1" parent="1">
          <mxGeometry x="88.75" y="867.5" width="70" height="40" as="geometry" />
        </mxCell>
        <mxCell id="7Or1WgBIj-IJ1wdiWkvj-9" value="Name" style="ellipse;whiteSpace=wrap;html=1;" vertex="1" parent="1">
          <mxGeometry x="253.75" y="867.5" width="70" height="40" as="geometry" />
        </mxCell>
        <mxCell id="7Or1WgBIj-IJ1wdiWkvj-10" value="" style="endArrow=classic;html=1;rounded=0;exitX=0.03;exitY=0.765;exitDx=0;exitDy=0;entryX=0.5;entryY=0;entryDx=0;entryDy=0;edgeStyle=orthogonalEdgeStyle;exitPerimeter=0;" edge="1" parent="1" source="7Or1WgBIj-IJ1wdiWkvj-15" target="7Or1WgBIj-IJ1wdiWkvj-6">
          <mxGeometry width="50" height="50" relative="1" as="geometry">
            <mxPoint x="95.75" y="836.6999999999999" as="sourcePoint" />
            <mxPoint x="153.75" y="817.5" as="targetPoint" />
          </mxGeometry>
        </mxCell>
        <mxCell id="7Or1WgBIj-IJ1wdiWkvj-11" value="" style="endArrow=classic;html=1;rounded=0;exitX=0.429;exitY=0.988;exitDx=0;exitDy=0;entryX=0.5;entryY=0;entryDx=0;entryDy=0;exitPerimeter=0;" edge="1" parent="1" source="7Or1WgBIj-IJ1wdiWkvj-15" target="7Or1WgBIj-IJ1wdiWkvj-8">
          <mxGeometry width="50" height="50" relative="1" as="geometry">
            <mxPoint x="123.18999999999983" y="844.7800000000001" as="sourcePoint" />
            <mxPoint x="153.75" y="817.5" as="targetPoint" />
          </mxGeometry>
        </mxCell>
        <mxCell id="7Or1WgBIj-IJ1wdiWkvj-12" value="" style="endArrow=classic;html=1;rounded=0;exitX=0.5;exitY=1;exitDx=0;exitDy=0;entryX=0.5;entryY=0;entryDx=0;entryDy=0;" edge="1" parent="1" source="7Or1WgBIj-IJ1wdiWkvj-16" target="7Or1WgBIj-IJ1wdiWkvj-7">
          <mxGeometry width="50" height="50" relative="1" as="geometry">
            <mxPoint x="211.1300000000001" y="845.58" as="sourcePoint" />
            <mxPoint x="153.75" y="817.5" as="targetPoint" />
          </mxGeometry>
        </mxCell>
        <mxCell id="7Or1WgBIj-IJ1wdiWkvj-13" value="" style="endArrow=classic;html=1;rounded=0;entryX=0.5;entryY=0;entryDx=0;entryDy=0;edgeStyle=orthogonalEdgeStyle;exitX=1;exitY=0.75;exitDx=0;exitDy=0;" edge="1" parent="1" source="7Or1WgBIj-IJ1wdiWkvj-16" target="7Or1WgBIj-IJ1wdiWkvj-9">
          <mxGeometry width="50" height="50" relative="1" as="geometry">
            <mxPoint x="241.0200000000002" y="836.86" as="sourcePoint" />
            <mxPoint x="153.75" y="817.5" as="targetPoint" />
            <Array as="points">
              <mxPoint x="289.25" y="836.62" />
            </Array>
          </mxGeometry>
        </mxCell>
        <mxCell id="7Or1WgBIj-IJ1wdiWkvj-15" value="Actors" style="rounded=0;whiteSpace=wrap;html=1;" vertex="1" parent="1">
          <mxGeometry x="93.75" y="806.62" width="67.5" height="40" as="geometry" />
        </mxCell>
        <mxCell id="7Or1WgBIj-IJ1wdiWkvj-16" value="Directors" style="rounded=0;whiteSpace=wrap;html=1;" vertex="1" parent="1">
          <mxGeometry x="172.5" y="806.62" width="77.5" height="40" as="geometry" />
        </mxCell>
        <mxCell id="7Or1WgBIj-IJ1wdiWkvj-17" value="has a" style="rhombus;whiteSpace=wrap;html=1;" vertex="1" parent="1">
          <mxGeometry x="675" y="751.62" width="50" height="33.38" as="geometry" />
        </mxCell>
        <mxCell id="7Or1WgBIj-IJ1wdiWkvj-18" value="" style="endArrow=none;html=1;rounded=0;exitX=0.5;exitY=0;exitDx=0;exitDy=0;" edge="1" parent="1" source="7Or1WgBIj-IJ1wdiWkvj-17">
          <mxGeometry width="50" height="50" relative="1" as="geometry">
            <mxPoint x="600" y="810" as="sourcePoint" />
            <mxPoint x="700" y="736" as="targetPoint" />
          </mxGeometry>
        </mxCell>
        <mxCell id="7Or1WgBIj-IJ1wdiWkvj-19" value="" style="endArrow=classic;html=1;rounded=0;exitX=0.5;exitY=1;exitDx=0;exitDy=0;entryX=0.75;entryY=0;entryDx=0;entryDy=0;edgeStyle=orthogonalEdgeStyle;" edge="1" parent="1" source="7Or1WgBIj-IJ1wdiWkvj-17" target="ododw7PFCaRmxLRYY1u6-48">
          <mxGeometry width="50" height="50" relative="1" as="geometry">
            <mxPoint x="600" y="810" as="sourcePoint" />
            <mxPoint x="650" y="760" as="targetPoint" />
            <Array as="points">
              <mxPoint x="700" y="800" />
              <mxPoint x="603" y="800" />
              <mxPoint x="603" y="818" />
            </Array>
          </mxGeometry>
        </mxCell>
        <mxCell id="7Or1WgBIj-IJ1wdiWkvj-29" value="Subscription" style="rounded=0;whiteSpace=wrap;html=1;" vertex="1" parent="1">
          <mxGeometry x="660" y="815" width="80" height="22.5" as="geometry" />
        </mxCell>
        <mxCell id="7Or1WgBIj-IJ1wdiWkvj-30" value="Start Date" style="ellipse;whiteSpace=wrap;html=1;" vertex="1" parent="1">
          <mxGeometry x="670" y="858.75" width="80" height="42.5" as="geometry" />
        </mxCell>
        <mxCell id="7Or1WgBIj-IJ1wdiWkvj-33" value="End Date" style="ellipse;whiteSpace=wrap;html=1;" vertex="1" parent="1">
          <mxGeometry x="762.5" y="857.5" width="85" height="50" as="geometry" />
        </mxCell>
        <mxCell id="7Or1WgBIj-IJ1wdiWkvj-34" value="" style="endArrow=classic;html=1;rounded=0;entryX=1;entryY=0;entryDx=0;entryDy=0;edgeStyle=orthogonalEdgeStyle;" edge="1" parent="1" target="ododw7PFCaRmxLRYY1u6-73">
          <mxGeometry width="50" height="50" relative="1" as="geometry">
            <mxPoint x="700" y="840" as="sourcePoint" />
            <mxPoint x="660" y="850" as="targetPoint" />
          </mxGeometry>
        </mxCell>
        <mxCell id="7Or1WgBIj-IJ1wdiWkvj-35" value="" style="endArrow=classic;html=1;rounded=0;exitX=0.5;exitY=1;exitDx=0;exitDy=0;entryX=0.366;entryY=0.083;entryDx=0;entryDy=0;entryPerimeter=0;edgeStyle=orthogonalEdgeStyle;" edge="1" parent="1" source="7Or1WgBIj-IJ1wdiWkvj-29" target="7Or1WgBIj-IJ1wdiWkvj-30">
          <mxGeometry width="50" height="50" relative="1" as="geometry">
            <mxPoint x="610" y="900" as="sourcePoint" />
            <mxPoint x="660" y="850" as="targetPoint" />
          </mxGeometry>
        </mxCell>
        <mxCell id="7Or1WgBIj-IJ1wdiWkvj-36" value="" style="endArrow=classic;html=1;rounded=0;exitX=0.75;exitY=1;exitDx=0;exitDy=0;edgeStyle=orthogonalEdgeStyle;" edge="1" parent="1" source="7Or1WgBIj-IJ1wdiWkvj-29" target="7Or1WgBIj-IJ1wdiWkvj-33">
          <mxGeometry width="50" height="50" relative="1" as="geometry">
            <mxPoint x="610" y="900" as="sourcePoint" />
            <mxPoint x="660" y="850" as="targetPoint" />
            <Array as="points">
              <mxPoint x="700" y="838" />
              <mxPoint x="700" y="848" />
              <mxPoint x="805" y="848" />
            </Array>
          </mxGeometry>
        </mxCell>
        <mxCell id="7Or1WgBIj-IJ1wdiWkvj-37" value="" style="endArrow=classic;html=1;rounded=0;exitX=0.5;exitY=1;exitDx=0;exitDy=0;entryX=0.5;entryY=0;entryDx=0;entryDy=0;" edge="1" parent="1" source="7Or1WgBIj-IJ1wdiWkvj-17" target="7Or1WgBIj-IJ1wdiWkvj-29">
          <mxGeometry width="50" height="50" relative="1" as="geometry">
            <mxPoint x="610" y="900" as="sourcePoint" />
            <mxPoint x="660" y="850" as="targetPoint" />
          </mxGeometry>
        </mxCell>
        <mxCell id="7Or1WgBIj-IJ1wdiWkvj-45" value="writes" style="rhombus;whiteSpace=wrap;html=1;" vertex="1" parent="1">
          <mxGeometry x="595" y="175" width="80" height="50" as="geometry" />
        </mxCell>
        <mxCell id="7Or1WgBIj-IJ1wdiWkvj-46" value="" style="endArrow=none;html=1;rounded=0;exitX=1;exitY=0.5;exitDx=0;exitDy=0;entryX=0.5;entryY=0;entryDx=0;entryDy=0;edgeStyle=orthogonalEdgeStyle;" edge="1" parent="1" source="7Or1WgBIj-IJ1wdiWkvj-45" target="ododw7PFCaRmxLRYY1u6-58">
          <mxGeometry width="50" height="50" relative="1" as="geometry">
            <mxPoint x="540" y="190" as="sourcePoint" />
            <mxPoint x="590" y="140" as="targetPoint" />
          </mxGeometry>
        </mxCell>
        <mxCell id="7Or1WgBIj-IJ1wdiWkvj-47" value="" style="endArrow=classic;html=1;rounded=0;exitX=0;exitY=0.5;exitDx=0;exitDy=0;entryX=1;entryY=0.5;entryDx=0;entryDy=0;" edge="1" parent="1" source="7Or1WgBIj-IJ1wdiWkvj-45" target="ododw7PFCaRmxLRYY1u6-82">
          <mxGeometry width="50" height="50" relative="1" as="geometry">
            <mxPoint x="540" y="190" as="sourcePoint" />
            <mxPoint x="590" y="140" as="targetPoint" />
          </mxGeometry>
        </mxCell>
      </root>
    </mxGraphModel>
  </diagram>
</mxfile>
